{"title":"The.Tempest.LIMITED.2010.BRRip.XviD.Ac3.Feel-Free","uid":6619246,"size":1396486549,"categoryP":"video","categoryS":"movies","magnet":"?xt=urn:btih:b8d45b4dbf67a0b119ece7addf5cfee5f1b83807&amp;dn=The.Tempest.LIMITED.2010.BRRip.XviD.Ac3.Feel-Free&amp;tr=udp%3A%2F%2Ftracker.openbittorrent.com%3A80&amp;tr=udp%3A%2F%2Fopen.demonii.com%3A1337&amp;tr=udp%3A%2F%2Ftracker.coppersurfer.tk%3A6969&amp;tr=udp%3A%2F%2Fexodus.desync.com%3A6969","seeders":3,"leechers":0,"uploader":"SnowCrash03","files":-1,"time":1313925474,"description":"Genre: Comedy | Drama | Fantasy\n Language: English\n IMDb: http://www.imdb.com/title/tt1274300/\n Source: LIMITED.720p.Bluray.x264.TWiZTED Thanks!\n \nFormat : AVI\n Format/Info : Audio Video Interleave\n File size : 1.30 GiB\n Duration : 1h 51mn\n Overall bit rate : 1 668 Kbps\n \nVideo\n ID : 0\n Format : MPEG-4 Visual\n Format profile : Advanced Simple@L5\n Format settings, BVOP : Yes\n Format settings, QPel : No\n Format settings, GMC : No warppoints\n Format settings, Matrix : Default (H.263)\n Codec ID : XVID\n Codec ID/Hint : XviD\n Duration : 1h 51mn\n Bit rate : 1 210 Kbps\n Width : 640 pixels\n Height : 272 pixels\n Display aspect ratio : 2.35:1\n Frame rate : 23.976 fps\n Color space : YUV\n Chroma subsampling : 4:2:0\n Bit depth : 8 bits\n Scan type : Progressive\n Bits/(Pixel*Frame) : 0.290\n Stream size : 966 MiB (73%)\n Writing library : XviD 1.2.1 (UTC 2008-12-04)\n \nAudio\n ID : 1\n Format : AC-3\n Format/Info : Audio Coding 3\n Mode extension : CM (complete main)\n Codec ID : 2000\n Duration : 1h 51mn\n Bit rate mode : Constant\n Bit rate : 448 Kbps\n Channel(s) : 6 channels\n Channel positions : Front: L C R, Side: L R, LFE\n Sampling rate : 48.0 KHz\n Bit depth : 16 bits\n Stream size : 357 MiB (27%)\n Alignment : Aligned on interleaves\n Interleave, duration : 42 ms (1.00 video frame)\n Interleave, preload duration : 512 ms\n \n\nPlot:\n Shakespeare's epic play is translated from page to screen, with the gender of the main character, Prospero, changed from male to female\n ","torrent":{"xt":"urn:btih:b8d45b4dbf67a0b119ece7addf5cfee5f1b83807","amp;dn":"The.Tempest.LIMITED.2010.BRRip.XviD.Ac3.Feel-Free","amp;tr":["udp%3A%2F%2Ftracker.openbittorrent.com%3A80","udp%3A%2F%2Fopen.demonii.com%3A1337","udp%3A%2F%2Ftracker.coppersurfer.tk%3A6969","udp%3A%2F%2Fexodus.desync.com%3A6969"],"infoHash":"b8d45b4dbf67a0b119ece7addf5cfee5f1b83807","infoHashBuffer":{"type":"Buffer","data":[184,212,91,77,191,103,160,177,25,236,231,173,223,92,254,229,241,184,56,7]},"announce":[],"urlList":[]}}